<?xml version="1.0" encoding="utf-8"?>
<!-- Generator: Adobe Illustrator 19.0.0, SVG Export Plug-In . SVG Version: 6.00 Build 0)  -->
<svg version="1.1" id="Layer_1" xmlns="http://www.w3.org/2000/svg" xmlns:xlink="http://www.w3.org/1999/xlink" x="0px" y="0px"
	 viewBox="-220 312.9 169.1 169.1" style="enable-background:new -220 312.9 169.1 169.1;" xml:space="preserve">
<style type="text/css">
	.st0{fill:#FFFFFF;}
</style>
<g>
	<path class="st0" d="M-97.6,312.9h-75.8c-25.7,0-46.7,20.9-46.7,46.7v75.8c0,25.7,20.9,46.7,46.7,46.7h75.8
		c25.7,0,46.7-20.9,46.7-46.7v-75.8C-50.9,333.9-71.9,312.9-97.6,312.9z M-65.9,435.3c0,17.5-14.2,31.7-31.7,31.7h-75.8
		c-17.5,0-31.7-14.2-31.7-31.7v-75.8c0-17.5,14.2-31.7,31.7-31.7h75.8c17.5,0,31.7,14.2,31.7,31.7L-65.9,435.3L-65.9,435.3z"/>
	<path class="st0" d="M-135.5,353.9c-24,0-43.6,19.5-43.6,43.6c0,24,19.5,43.6,43.6,43.6s43.6-19.5,43.6-43.6
		C-91.9,373.4-111.4,353.9-135.5,353.9z M-135.5,426c-15.7,0-28.6-12.8-28.6-28.6c0-15.8,12.8-28.6,28.6-28.6s28.6,12.8,28.6,28.6
		C-106.9,413.2-119.7,426-135.5,426z"/>
	<path class="st0" d="M-90.1,341.2c-2.9,0-5.7,1.2-7.8,3.2c-2.1,2-3.2,4.9-3.2,7.8c0,2.9,1.2,5.7,3.2,7.8c2,2,4.9,3.2,7.8,3.2
		c2.9,0,5.7-1.2,7.8-3.2c2.1-2.1,3.2-4.9,3.2-7.8c0-2.9-1.2-5.7-3.2-7.8C-84.3,342.4-87.2,341.2-90.1,341.2z"/>
</g>
</svg>
